<svg xmlns="http://www.w3.org/2000/svg" width="2157" height="1541" viewBox="0 0 2186 1562" shape-rendering="geometricPrecision" text-rendering="geometricPrecision" image-rendering="optimizeQuality" fill-rule="evenodd" clip-rule="evenodd"><defs><style>.fil1{fill:#b3b3b3}.fil0{fill:#eee}.fil2{fill:#b3b3b3;fill-rule:nonzero}</style></defs><g id="Слой_x0020_1"><path class="fil0" d="M0 0h2186v1562H0z"/><g id="_1848829219888"><path class="fil1" d="M782 452h21v-26c0-7 6-13 13-13h94c7 0 13 6 13 13v26h22l18-52c6-18 19-32 37-32h187c19 0 32 14 38 32l18 52h162c23 0 42 19 42 43v380c0 23-19 42-42 42H782c-24 0-43-19-43-42V495c0-24 19-43 43-43zm511 38h93c7 0 14 6 14 14v26c0 8-7 15-14 15h-93c-8 0-14-7-14-15v-26c0-8 6-14 14-14zm-200 0c108 0 195 87 195 195 0 107-87 194-195 194-107 0-195-87-195-194 0-108 88-195 195-195zm0 56c77 0 139 62 139 139 0 76-62 138-139 138-76 0-138-62-138-138 0-77 62-139 138-139z"/><path class="fil2" d="M578 1161h-23v-50h-35v50h-24v-117h24v47h35v-47h23v117zm53 1c-12 0-21-3-27-10-7-7-10-17-10-30v-7c0-13 3-24 9-31 6-8 14-12 26-12 11 0 19 4 24 11 6 7 9 17 9 31v11h-45c0 6 1 11 4 14 2 3 6 5 11 5 8 0 14-3 19-8l9 13c-3 4-7 7-12 10-5 2-11 3-17 3zm-14-53h22v-2c0-5-1-9-2-12-2-2-5-4-9-4-3 0-6 2-8 4-2 3-3 8-3 14zm119-16h-22v68h-23v-68h-22v-19h67v19zm93-19h22v87h-22v-54l-21 54h-22v-87h22v53l21-53zm76 26c0-7-3-10-8-10-2 0-4 1-6 2-1 2-2 4-2 7h-23c0-8 3-14 9-19 5-5 12-8 21-8 10 0 17 3 23 7 5 4 8 11 8 19 0 4-1 7-3 10-2 4-4 6-8 8 8 4 12 10 12 20 0 8-2 14-8 19s-14 7-24 7c-9 0-16-2-22-7s-9-12-9-20h23c0 3 1 6 2 7 2 2 4 3 7 3s5-1 7-3c1-2 2-4 2-8 0-6-3-10-8-10h-11v-15h10c5 0 8-3 8-9zm34 15c0-14 3-24 10-31 6-8 14-12 25-12s20 4 26 12c6 7 10 18 10 31v5c0 13-4 24-10 31-6 8-14 11-25 11-12 0-20-3-26-11-7-7-10-18-10-31v-5zm23 5c0 16 4 24 13 24 7 0 11-7 12-20v-9c0-8-1-14-3-18-3-4-6-6-10-6-3 0-6 2-9 6-2 4-3 10-3 18v5zm100-41c9 0 16 4 22 11 5 7 8 17 8 30v1c0 13-3 23-9 30-7 8-15 11-26 11s-19-4-25-12c-7-8-10-19-10-33v-4c0-19 3-34 9-46 5-11 13-18 24-21 6-1 9-3 10-4 2-2 3-4 3-6h18c0 8-2 15-6 19s-11 7-21 10c-5 1-9 4-12 7-3 4-5 10-6 17 6-7 13-10 21-10zm-5 19c-8 0-12 6-12 20v3c0 8 1 14 3 17 2 4 5 6 9 6 8 0 12-7 12-21v-4c0-14-4-21-12-21zm115 22c0 14-2 24-7 31-5 8-12 11-21 11-7 0-13-3-17-8v40h-23v-120h21l1 8c5-6 10-10 18-10 9 0 16 4 21 11 5 6 7 17 7 30v7zm-23-6c0-8-1-14-2-18-2-3-5-5-10-5-4 0-8 2-10 6v41c2 4 6 6 10 6 5 0 8-2 10-6s2-10 2-18v-6zm78 47c-1-2-1-4-2-7-4 6-10 8-17 8s-13-2-18-7c-4-5-7-11-7-19 0-9 3-16 9-21s14-7 25-7h7v-7c0-4-1-7-2-8-1-2-3-3-6-3-6 0-8 3-8 10h-23c0-8 3-15 9-20s13-8 23-8c9 0 17 3 22 8s8 12 8 21v41c0 7 1 13 3 17v2h-23zm-13-16c2 0 4-1 6-2s3-2 4-4v-18h-6c-3 0-6 2-9 4-2 3-3 6-3 10 0 6 3 10 8 10zm122-16h-8v32h-23v-32h-7l-12 32h-27l21-47-21-40h28l12 32h6v-32h23v32h6l13-32h28l-21 39 21 48h-28l-11-32zm84 33c-12 0-21-3-27-10-7-7-10-17-10-30v-7c0-13 3-24 9-31 6-8 14-12 26-12 10 0 19 4 24 11 6 7 8 17 9 31v11h-46c1 6 2 11 5 14 2 3 6 5 11 5 8 0 14-3 19-8l9 13c-3 4-7 7-12 10-5 2-11 3-17 3zm-14-53h22v-2c0-5-1-9-2-12-2-2-5-4-9-4s-6 2-8 4c-2 3-3 8-3 14zm123 52h-23v-34h-20v34h-23v-87h23v35h20v-35h23v87zm59-87h23v87h-23v-54l-20 54h-23v-87h23v53l20-53zm102 0v87h-23v-30h-8l-14 30h-23l16-34c-4-3-8-6-10-10s-4-9-4-14c0-8 3-15 9-21 6-5 14-8 24-8h33zm-43 30c0 3 1 5 3 8 2 2 4 3 7 3h10v-22h-10c-3 0-5 1-7 3s-3 5-3 8z"/></g></g></svg>