<svg xmlns="http://www.w3.org/2000/svg" width="2924" height="601" viewBox="0 0 2715 558" shape-rendering="geometricPrecision" text-rendering="geometricPrecision" image-rendering="optimizeQuality" fill-rule="evenodd" clip-rule="evenodd"><defs><style>.fil1{fill:#314557}.fil2{fill:#fefefe;fill-rule:nonzero}.fil0{fill:url(#id0)}</style><linearGradient id="id0" gradientUnits="userSpaceOnUse" x1="582.582" y1="420.774" x2="2713.39" y2="420.774"><stop offset="0" stop-color="#0079bf"/><stop offset=".502" stop-color="#0095d8"/><stop offset="1" stop-color="#00b1e5"/></linearGradient></defs><g id="Слой_x0020_1"><path class="fil0" d="M583 315h2131v212H583z"/><path class="fil1" d="M715 224h-75l-14 46h-43l73-213h44l72 213h-43l-14-46zm-64-33h53l-26-84h-1l-26 84zm214 22l2 12h1l3-12 46-156h45l-72 213h-44L774 57h44l47 156zm265-123h-60v180h-43V90h-60V57h163v33zm190 92c0 26-8 48-25 65-16 17-38 26-64 26s-48-9-64-26-25-39-25-65v-38c0-26 8-47 25-65 16-17 37-25 64-25 26 0 48 8 64 25 17 18 25 39 25 65v38zm-43-38c0-17-4-31-12-41-8-11-20-16-34-16-15 0-26 5-34 16-8 10-12 24-12 41v38c0 17 4 31 12 42 8 10 19 16 34 16 14 0 26-6 34-16 8-11 12-25 12-42v-38zm119 41v85h-43V57h81c24 0 43 5 56 16 14 11 21 27 21 47 0 11-3 20-9 28-5 8-14 14-25 19 13 4 22 10 27 19 6 8 8 19 8 32v16c0 5 1 12 3 18 1 7 4 11 8 15v3h-44c-4-3-6-9-7-16-2-7-2-14-2-21v-15c0-10-3-19-9-25-6-5-14-8-24-8h-41zm0-33h37c12 0 21-3 27-8 5-5 8-12 8-22s-3-18-8-24c-6-5-15-8-26-8h-38v62zm286 24h-88v61h103v33h-146V57h146v33h-103v53h88v33zm97-119l54 157h1l54-157h56v213h-42v-64l4-94h-1l-57 158h-29l-56-157h-1l4 93v64h-43V57h56zm249 213h-43v-38h43v38zm89 0h-43V57h43v213zm214 0h-42l-86-146h-1v146h-43V57h43l86 145h1V57h42v213zm172-89h-89v89h-43V57h147v33h-104v58h89v33zm212 1c0 26-8 48-25 65-16 17-38 26-64 26s-48-9-64-26-25-39-25-65v-38c0-26 9-47 25-65 16-17 37-25 64-25 26 0 48 8 64 25 17 18 25 39 25 65v38zm-43-38c0-17-4-31-12-41-8-11-20-16-34-16-15 0-26 5-34 16-8 10-12 24-12 41v38c0 17 4 31 12 42 8 10 19 16 34 16 14 0 26-6 34-16 8-11 12-25 12-42v-38zM443 335l-12 12-1 1-5 5c-5 6-11 10-16 16l-5 5c-2 2-5 6-8 8-3 3-4 5-7 7l-3 3-2 2-9 9-10 10-1 1-2 2-2 2-17 17-8 8c-3 0-5-1-8-2-9-1-18 0-25 3-5 2-10 4-13 6l-6 5c-1 1-2 1-3 2s-1 2-2 3c-10 10-17 28-15 43 0 4 2 14 5 15l3-3 2-2 6-5c4-5 11-12 16-17 0-1 1-1 2-2 4-4 8-10 17-11 6-1 12 1 16 5 2 2 4 4 6 5 0 1 1 2 2 2 4 4 5 10 5 16-2 9-9 15-14 20-3 3-5 6-9 9l-7 7c-2 2-10 10-10 11s5 3 6 3c3 1 6 2 9 2 11 1 22-2 31-7 4-2 8-5 12-8 13-12 21-31 18-49 0-3-1-5-2-8l15-15 9-9 36-36 8-8 17-17 2-2c5-6 11-11 17-17l5-5c3 1 5 2 8 2 13 2 27-2 38-9 1-1 2-1 3-2l5-5c3-2 9-10 11-14s4-9 6-14c1-6 2-12 1-18-1-4-3-13-5-15-1 0-5 5-5 5l-2 2-2 2-11 11c-2 2-3 4-5 5l-4 4c-5 4-8 10-17 11-5 1-9 1-12-1-2-1-3-2-5-3l-3-4c-3-3-5-4-7-8-2-3-3-7-2-12 1-9 7-13 11-17l18-19c2-1 3-2 4-3 1-2 7-6 7-8-9-5-22-6-33-3-9 2-18 7-25 14-2 1-3 3-5 4-11 13-17 32-13 49 1 1 1 2 1 4zm-80 19H161v17c0 5 1 12-1 15-3 5-7 5-13 5h-17c-9 0-24 2-25-9v-34c0-7 0-8-2-14-3-5-3-8-3-14-1-14-1-35 2-49 1-9 3-19 4-29 1-3 2-12 0-14-3-4-14-8-16-10-2-1-3-2-3-5 0-5 0-12 5-12h21c1 1 1 1 3 1 3-1 5-9 6-11s1-4 2-6c5-10 5-10 9-17 1-2 2-3 3-5 2-4 4-7 7-10 4-6 4-5 8-9 5-6 15-10 23-10h176c9 0 19 4 24 10 4 4 3 3 8 9 2 3 5 6 7 10 1 2 2 3 3 5 3 7 4 7 8 17l3 6c1 2 3 10 6 11 1 0 1 0 3-1h20c6 0 5 7 5 12 0 3 0 4-2 5-2 2-13 6-16 10-3 2-1 11-1 14 2 10 3 20 5 29 3 14 2 35 2 49 0 4 0 6-1 9l-58 58c-1 0-1 0-1-1-2-3-1-10-1-15s0-12-1-17zM262 0c141 0 256 111 262 250l-6-3c-9-3-19-4-27-2-2 0-4 0-6 1-9-116-105-207-223-207C139 39 39 139 39 262c0 117 90 213 204 222-3 12-3 28 3 40C109 516 0 402 0 262 0 117 117 0 262 0zm0 220h125c3-1 5-3 6-5 2-6-1-13-2-17-2-6-4-10-6-15-6-14-7-15-17-25-3-3-7-6-13-8H170c-6 2-11 5-14 8-9 10-10 11-16 25-2 5-4 9-6 15-2 4-4 11-2 17 1 2 3 4 5 5h125zm-49 60c0-4-3-20-5-23s-6-2-11-2h-56c-7 0-8-2-12-3 1 6 2 19 4 24 2 4 5 4 10 4 7 0 67 1 70 0zm99 0c0-4 2-20 4-23 3-3 7-2 12-2h56c6 0 7-2 12-3-1 6-3 19-4 24-2 4-5 4-10 4-7 0-67 1-70 0z"/><path class="fil2" d="M731 446l3-5c4-5 6-13 6-23l1-28h37v56h7v28h-10v-19h-38v19h-10v-28h4zm12 0h24v-46h-15l-1 16c-1 13-3 23-8 30zm101-56v65h-11v-56h-17l-1 22c-1 12-2 21-5 26s-7 8-13 8h-4v-10h3c3 0 5-2 6-6s2-11 3-21l1-28h38zm59 0v65h-10v-25h-13l-13 25h-12l15-27c-4-2-7-4-9-7-1-3-2-7-2-11 0-6 2-11 5-15 4-3 10-5 16-5h23zm-34 20c0 3 1 6 3 8 2 1 4 2 7 2h14v-21h-13c-3 0-6 1-8 3s-3 5-3 8zm113 45c0-1-1-4-1-7-4 6-9 8-14 8-6 0-11-1-14-5-4-3-5-8-5-14s2-12 6-16c5-3 11-5 19-5h8v-7c0-4-1-7-3-9-1-1-4-2-8-2-3 0-5 1-7 3-3 1-4 4-4 7h-10c0-3 1-7 3-10s4-5 8-7c3-2 7-2 11-2 7 0 12 1 15 5 4 3 5 8 6 14v33c0 5 0 9 2 13v1h-12zm-14-8c3 0 5-1 8-2 2-2 4-4 5-6v-16h-6c-5 1-9 2-12 4s-5 5-5 9 1 7 3 8c1 2 4 3 7 3zm41 8v-65h22c7 0 13 1 17 4s6 8 6 14c0 3-1 5-2 8-2 2-4 4-7 5 3 1 6 3 8 6 2 2 3 6 3 10 0 6-2 10-6 13-3 4-9 5-16 5h-25zm11-29v20h14c8 0 11-3 11-10 0-6-3-10-11-10h-14zm0-9h11c8 0 12-3 12-9s-4-9-11-9h-12v18zm91-18h-18v56h-10v-56h-18v-9h46v9zm6 20c0-9 3-17 7-22 5-6 11-8 19-8 7 0 13 2 18 8 5 5 7 12 7 22v7c0 9-2 17-7 22-4 6-11 8-18 8-8 0-14-2-18-8-5-5-7-12-8-21v-8zm11 7c0 6 2 12 4 15 3 4 6 6 11 6 9 0 14-7 14-20v-8c0-6-1-12-4-15-2-4-6-6-10-6-5 0-8 2-11 6-2 3-4 9-4 15v7zm99-36v65h-11v-56h-17l-1 22c0 12-2 21-5 26s-7 8-13 8h-4v-10h3c3 0 5-2 6-6 2-4 2-11 3-21l1-28h38zm29 27h12c1-8 3-15 8-21 4-5 10-7 17-7s13 2 18 8c4 6 7 13 7 22v4c0 10-2 18-7 24-4 6-11 9-18 9s-13-2-18-8c-4-5-7-13-7-21h-12v28h-11v-65h11v27zm22 6c0 7 2 13 4 18 3 4 6 6 11 6 4 0 8-2 10-6 3-5 4-11 4-19s-1-13-4-18c-2-4-6-6-10-6-5 0-8 2-11 6-2 5-4 11-4 19zm78-30c7 0 13 3 17 9 4 5 6 12 6 22s-2 18-7 24c-4 5-10 8-18 8-7 0-13-3-18-8-4-6-6-14-6-24v-5c0-14 2-25 6-33s10-13 18-15c5-1 8-2 10-4 2-1 3-3 3-6h8v3c0 8-4 13-11 15l-8 2c-5 1-9 4-12 8-3 3-5 8-5 14 4-6 10-10 17-10zm-2 10c-4 0-8 1-10 5s-4 9-4 17c0 7 2 12 4 16s6 6 10 6c5 0 8-2 10-6 3-4 4-10 4-18 0-6-1-11-4-15-2-4-6-5-10-5zm72-13h10v65h-10v-48l-24 48h-11v-65h11v47l24-47zm69 9h-18v56h-11v-56h-17v-9h46v9zm30 57c-9 0-15-2-19-7-5-5-7-12-7-21v-8c0-10 2-18 6-23 5-6 11-8 18-8 8 0 14 2 17 7 4 5 6 12 6 23v7h-36v1c0 7 1 12 4 15 2 4 6 5 11 5 3 0 6 0 8-2 3-1 5-3 7-5l6 7c-5 6-12 9-21 9zm-2-58c-4 0-7 1-10 4-2 3-3 8-3 15h26v-2c-1-6-2-11-4-13-2-3-5-4-9-4zm82-8v65h-10v-56h-18l-1 22c0 12-2 21-5 26-2 5-7 8-13 8h-3v-10h2c3 0 5-2 7-6 1-4 2-11 2-21l1-28h38zm41 66c-9 0-15-2-19-7s-7-12-7-21v-8c0-10 2-18 7-23 4-6 10-8 17-8 8 0 14 2 18 7 3 5 5 12 5 23v7h-36v1c0 7 1 12 4 15 2 4 6 5 11 5 3 0 6 0 9-2 2-1 4-3 6-5l6 7c-5 6-12 9-21 9zm-2-58c-4 0-7 1-9 4-3 3-4 8-4 15h26v-2c-1-6-2-11-4-13-2-3-5-4-9-4zm72-8h10v65h-10v-48l-24 48h-11v-65h11v47l24-47zm6-24c0 5-2 9-5 12s-8 4-13 4c-6 0-10-1-13-4-4-3-5-7-5-12h9c0 3 0 5 2 6 2 2 4 3 7 3s5-1 6-3c2-1 3-3 3-6h9zm85 24h11v65h-11v-48l-24 48h-10v-65h10v47l24-47zm90 65c-1-1-1-4-2-7-4 6-8 8-14 8s-11-1-14-5c-3-3-5-8-5-14s2-12 7-16c4-3 10-5 18-5h8v-7c0-4-1-7-3-9-1-1-4-2-7-2-4 0-6 1-8 3-2 1-3 4-3 7h-11c0-3 1-7 3-10s5-5 8-7 7-2 11-2c7 0 12 1 15 5 4 3 6 8 6 14v33c0 5 0 9 2 13v1h-11zm-15-8c3 0 6-1 8-2 2-2 4-4 5-6v-16h-6c-5 1-9 2-12 4s-4 5-4 9 0 7 2 8c1 2 4 3 7 3zm41 8v-65h22c8 0 13 1 17 4s6 8 6 14c0 3-1 5-2 8-2 2-4 4-7 5 3 1 6 3 8 6 2 2 3 6 3 10 0 6-2 10-6 13-3 4-9 5-15 5h-26zm11-29v20h15c7 0 10-3 10-10 0-6-3-10-10-10h-15zm0-9h11c8 0 13-3 13-9s-4-9-12-9h-12v18zm91-18h-18v56h-10v-56h-18v-9h46v9zm7 20c0-9 2-17 7-22 4-6 10-8 18-8 7 0 14 2 18 8 5 5 7 12 7 22v7c0 9-2 17-7 22-4 6-10 8-18 8s-14-2-18-8c-5-5-7-12-7-21v-8zm10 7c0 6 2 12 4 15 3 4 7 6 11 6 9 0 14-7 15-20v-8c0-6-2-12-4-15-3-4-7-6-11-6s-8 2-11 6c-2 3-4 9-4 15v7zm86 14l18-50h13v65h-11v-45l-16 45h-7l-17-46v46h-11v-65h14l17 50zm82 15c-1-1-1-4-2-7-3 6-8 8-14 8s-11-1-14-5c-3-3-5-8-5-14s2-12 7-16c4-3 10-5 18-5h8v-7c0-4-1-7-2-9-2-1-5-2-8-2-4 0-6 1-8 3-2 1-3 4-3 7h-11c0-3 1-7 3-10s5-5 8-7 7-2 11-2c7 0 12 1 15 5 4 3 6 8 6 14v33c0 5 1 9 2 13v1h-11zm-15-8c3 0 6-1 8-2 2-2 4-4 5-6v-16h-6c-5 1-9 2-12 4s-4 5-4 9 0 7 2 8c1 2 4 3 7 3zm63 0c4 0 6-1 9-3 2-2 3-5 3-9h10c0 6-2 11-6 15-5 4-10 6-16 6-8 0-14-2-18-7-5-5-7-13-7-23v-7c0-10 2-18 7-23 4-5 10-7 18-7 7 0 12 2 16 6s6 10 6 17h-10c0-5-1-8-3-11-2-2-5-3-9-3-5 0-8 1-11 4-2 4-3 9-3 16v8c0 8 1 13 3 16 3 4 6 5 11 5zm76-48h-18v56h-11v-56h-17v-9h46v9zm30 57c-9 0-15-2-19-7s-7-12-7-21v-8c0-10 2-18 7-23 4-6 10-8 17-8 8 0 14 2 18 7 3 5 5 12 5 23v7h-36v1c0 7 1 12 4 15 2 4 6 5 11 5 3 0 6 0 9-2 2-1 4-3 6-5l6 7c-5 6-12 9-21 9zm-2-58c-4 0-7 1-9 4-3 3-4 8-4 15h26v-2c-1-6-2-11-4-13-2-3-5-4-9-4zm83 28c0 10-1 18-5 23s-9 7-16 7c-6 0-12-2-15-7v31h-11v-90h10v7c4-6 9-8 16-8s12 2 16 7 5 12 5 22v8zm-10-7c0-7-1-12-4-16-2-3-5-5-10-5-6 0-9 3-12 8v34c3 5 6 7 12 7 5 0 8-2 10-5 3-4 4-9 4-16v-7zm22 0c0-9 2-17 7-22 5-6 11-8 18-8 8 0 14 2 19 8 4 5 7 12 7 22v7c0 9-3 17-7 22-5 6-11 8-19 8-7 0-13-2-18-8-4-5-7-12-7-21v-8zm11 7c0 6 1 12 4 15 2 4 6 6 10 6 10 0 15-7 15-20v-8c0-6-1-12-4-15-3-4-6-6-11-6-4 0-8 2-10 6-3 3-4 9-4 15v7zm54 29v-65h22c8 0 14 1 17 4 4 3 6 8 6 14 0 3 0 5-2 8-2 2-4 4-7 5 4 1 6 3 8 6 2 2 3 6 3 10 0 6-2 10-5 13-4 4-9 5-16 5h-26zm11-29v20h15c7 0 11-3 11-10 0-6-4-10-11-10h-15zm0-9h11c9 0 13-3 13-9s-4-9-12-9h-12v18z"/></g></svg>