<svg xmlns="http://www.w3.org/2000/svg" width="1000.04" height="186.121" viewBox="0 0 26665 4963" shape-rendering="geometricPrecision" text-rendering="geometricPrecision" image-rendering="optimizeQuality" fill-rule="evenodd" clip-rule="evenodd"><defs><style>.fil0{fill:#fefefe}</style></defs><path class="fil0" d="M3941 2976l-105 105c-6 6-10 8-16 15l-45 45c-44 46-92 89-136 136l-45 44c-24 25-50 54-75 77-24 20-38 38-61 59l-29 30c-6 5-10 10-15 16-25 26-52 49-76 75-29 32-61 59-90 90-6 7-9 9-16 15-5 6-9 11-14 16-5 6-10 9-15 14l-151 152c-17 18-64 60-77 76-23-5-43-13-71-18-74-12-156-1-224 24-42 15-81 36-114 58l-50 37c-9 7-14 15-23 22-12 10-13 13-22 23-90 91-153 248-136 388 3 32 23 118 43 131 7 1 29-25 35-30 5-6 9-11 14-16l49-48c40-45 103-100 144-145 6-7 10-9 17-16 41-39 74-90 154-102 56-8 106 10 146 44 17 15 32 33 48 49 6 6 11 10 17 16 35 36 51 89 44 142-11 83-74 131-118 173-27 26-51 56-80 80l-65 65c-15 17-91 86-94 101 8 9 45 21 61 27 24 7 49 12 76 15 96 10 196-16 277-61 38-21 75-48 102-72 119-107 192-276 166-439-5-27-12-46-18-70l134-134c24-26 52-49 76-75l318-319c24-26 52-49 76-75 34-38 107-109 149-151 6-6 11-9 16-15 49-52 101-100 151-152l47-45c23 5 43 13 70 18 119 19 243-18 340-83 9-6 16-11 24-18l48-39c27-23 77-91 96-125 21-38 39-81 51-128 12-50 16-107 10-160-3-31-24-118-42-129-8-2-41 36-49 44-6 6-11 10-17 16-5 6-9 11-15 16l-96 95c-16 17-31 34-48 49l-33 33c-41 39-74 89-153 102-39 7-75 1-108-15-15-7-27-17-38-26l-34-33c-22-25-40-35-58-68-17-30-25-67-20-107 11-84 65-118 102-159l161-160c11-12 22-21 32-32 13-15 61-54 61-70-78-46-199-53-292-28-84 22-162 65-224 121-14 13-27 28-41 44-102 113-154 279-116 430 3 13 8 24 10 35zm2614 141h-751l-146 461h-433l736-2140h440l733 2140h-434l-145-461zm-646-331h540l-265-847h-8l-267 847zm2151 223l26 116h9l25-113 466-1574h452l-727 2140h-441l-726-2140h453l463 1571zm2667-1240h-606v1809h-429V1769h-602v-331h1637v331zm1911 932c0 262-82 479-248 650-167 171-383 257-648 257-263 0-477-86-642-257-164-171-247-388-247-650v-386c0-261 82-478 246-649 164-172 378-258 642-258 265 0 481 86 648 258 166 171 249 388 249 649v386zm-428-390c0-167-42-304-125-412-84-106-198-160-344-160s-260 53-340 160-120 244-120 412v390c0 170 40 308 122 415 81 107 194 161 339 161 147 0 262-54 344-161s124-245 124-415v-390zm1193 412v855h-429V1438h807c243 0 435 56 572 167s207 266 207 465c0 111-29 206-87 285-58 80-143 144-254 193 126 37 217 99 272 187 56 87 83 194 83 323v157c0 60 8 122 24 187 16 66 44 114 83 145v31h-442c-39-31-65-84-76-157-12-74-18-143-18-209v-151c0-107-29-190-87-249-59-59-141-89-247-89h-408zm0-331h370c120 0 211-26 270-76 59-51 89-127 89-226s-30-176-89-234-147-87-262-87h-378v623zm2876 247h-886v608h1036v331h-1466V1438h1463v331h-1033v539h886v331zm973-1201l545 1577h8l550-1577h562v2140h-429v-638l41-945-9-2-574 1585h-287l-570-1579-9 2 41 939v638h-430V1438h561zm2506 2140h-429v-376h429v376zm891 0h-429V1438h429v2140zm2157 0h-427l-864-1462-9 1v1461h-430V1438h430l864 1461 9-1V1438h427v2140zm1727-888h-896v888h-430V1438h1476v331h-1046v590h896v331zm2132 11c0 262-82 479-248 650-167 171-383 257-648 257-263 0-478-86-642-257-165-171-247-388-247-650v-386c0-261 82-478 246-649 164-172 378-258 641-258 266 0 482 86 649 258 166 171 249 388 249 649v386zm-429-390c0-167-41-304-124-412-84-106-199-160-345-160s-259 53-339 160-121 244-121 412v390c0 170 41 308 122 415 82 107 195 161 340 161 147 0 262-54 344-161s123-245 123-415v-390zM3231 3148H1433c-4 47-1 103-1 151 0 41 8 105-13 135-26 38-58 38-114 38h-149c-83 0-216 25-222-78-3-64 0-224 0-298 0-62 1-78-22-129-21-45-27-65-27-122 0-125-5-312 18-433 16-82 31-173 41-257 4-33 18-109-2-132-28-34-125-69-143-84-17-14-22-20-23-50-1-36-6-101 46-104 44-2 100 2 146 2 12 0 27-2 37 2 11 5 10 11 26 5 24-10 42-76 52-100 7-17 15-34 22-51 38-91 43-84 77-147 9-17 17-31 26-47 19-34 39-62 61-90 39-49 38-42 71-78 48-51 132-91 209-91 54 0 416 0 783-1 367 1 729 1 783 1 77 0 161 40 209 91 33 36 31 29 70 78 23 28 43 56 62 90 9 16 17 30 26 47 33 63 39 56 77 147 7 17 15 34 22 51 10 24 28 90 52 100 16 6 14 0 26-5 10-4 25-2 37-2 46 0 102-4 146-2 52 3 47 68 46 104-1 30-6 36-23 50-18 15-115 50-143 84-20 23-6 99-2 132 10 84 25 175 41 257 23 121 18 308 18 433 0 34-2 55-8 76l-521 520c-1-2-3-4-5-7-21-30-13-94-13-135 0-48 2-104-1-151zM2332 0c1252 0 2273 987 2329 2225-19-11-38-19-58-26-78-28-164-36-242-25-17 2-34 6-52 11-76-1026-932-1835-1977-1835-1095 0-1982 887-1982 1982 0 1037 796 1887 1810 1974-31 106-22 244 31 353C969 4587 0 3572 0 2332 0 1044 1044 0 2332 0zm0 1952h1112c21-3 40-26 48-44 19-46-5-110-19-152-16-46-35-88-54-132-49-117-58-127-146-221-27-28-65-54-119-65-40-8-136-3-183-3H1692c-46 0-142-5-182 3-54 11-93 37-119 65-88 94-97 104-147 221-18 44-37 86-53 132-14 42-38 106-19 152 7 18 27 41 48 44h1112zm-439 540c1-35-24-184-40-205-22-29-59-22-102-22l-500-1c-56 0-65-13-103-24 4 53 18 170 35 215 13 37 40 38 85 38 67 0 597 3 625-1zm878 0c-1-35 24-184 40-205 21-29 59-22 102-22l500-1c56 0 64-13 103-24-4 53-19 170-35 215-13 37-40 38-85 38-67 0-598 3-625-1z" id="Слой_x0020_1"/></svg>