<svg xmlns="http://www.w3.org/2000/svg" width="2483" height="2350" viewBox="0 0 2493 2360" shape-rendering="geometricPrecision" text-rendering="geometricPrecision" image-rendering="optimizeQuality" fill-rule="evenodd" clip-rule="evenodd"><defs><style>.fil12{fill:#40352d}.fil11,.fil5,.fil9{fill-rule:nonzero}.fil9{fill:#fbf6db}.fil5{fill:#e7c80a}.fil11{fill:#e0dfdd}.fil0{fill-rule:nonzero}.fil6{fill:#d5b716}.fil6,.fil7{fill-rule:nonzero}.fil0{fill:#cfd3bc}.fil7{fill:#b9a226}.fil10{fill:#4f4339}.fil10,.fil3,.fil8{fill-rule:nonzero}.fil8{fill:#40352d}.fil3{fill:#618637}.fil1{fill:#547936}.fil1,.fil2,.fil4{fill-rule:nonzero}.fil4{fill:#486532}.fil2{fill:#3e5a2f}</style></defs><g id="Слой_x0020_1"><path class="fil0" d="M1285 2360c-624 0-1130-55-1130-122 0-34 129-65 337-87v32c0 24 19 43 42 43h1476c23 0 42-19 42-43v-35c223 22 363 54 363 90 0 67-506 122-1130 122z"/><path class="fil1" d="M2332 1042c7 10 4 25-6 32l-574 397c-10 8-25 5-32-5l-157-228c-7-10-5-25 6-32l573-397c11-7 25-5 32 6l158 227z"/><path class="fil2" d="M2037 1078c35 49 22 118-27 152-50 34-118 22-153-28-34-49-22-117 28-152 50-34 118-22 152 28z"/><path class="fil2" d="M1746 1435l548-379-144-208-547 380 143 207zm572-375l-576 399-163-235 576-400 163 236z"/><path class="fil2" d="M1647 1183l-58 40 39 56c1 0 2-1 3-1 31-22 38-64 17-95h-1zm57 204l40 58 56-39c0-1-1-2-1-3-22-31-64-38-94-17l-1 1zm544-288l58-41-39-56c-1 1-2 1-2 2-31 21-39 63-17 94v1zm-56-204l-41-58-56 39c0 1 1 1 2 2 21 31 63 39 94 17h1z"/><path class="fil1" d="M305 932c-10 7-12 22-4 32l435 546c8 10 22 11 32 4l216-173c10-8 12-22 4-32L554 763c-8-10-23-12-33-4L305 932z"/><path class="fil2" d="M576 1051c-47 37-55 106-17 154 38 47 106 55 154 17 47-38 55-106 17-154-37-47-106-55-154-17z"/><path class="fil2" d="M949 1320L534 799 337 956l415 521 197-157zM537 774l436 549-224 178-436-548 224-179z"/><path class="fil2" d="M920 1264l44 55-54 43c-1-1-1-2-2-3-23-29-19-71 11-95h1zm-113 179l-56 44-43-54c1 0 2-1 3-2 29-23 72-18 95 11l1 1zm-439-433l-44-55 54-43c1 1 1 2 2 2 23 30 18 72-11 96h-1zm113-179l56-44 42 54-2 2c-29 23-72 18-95-11l-1-1z"/><path class="fil1" d="M435 1976c8 10 23 11 33 3l539-442c10-8 12-23 4-32l-176-214c-8-10-22-11-32-3l-540 442c-10 8-11 22-3 32l175 214z"/><path class="fil2" d="M551 1703c38 46 107 53 154 15 46-38 53-107 15-154s-107-53-154-15-54 107-15 154z"/><path class="fil2" d="M814 1326l-515 423 160 195 515-423-160-195zm-539 420l542-444 181 222-542 444-181-222z"/><path class="fil2" d="M759 1357l54-45 44 53c-1 1-2 1-3 2-28 24-71 19-95-9v-1zm180 110l45 55-53 43c-1 0-1-1-2-2-24-29-19-72 9-95l1-1zm-426 445l-55 44-43-53 2-2c29-24 72-19 95 10l1 1zm-181-111l-45-55 53-43c1 1 2 1 3 2 23 29 19 72-10 95l-1 1z"/><path class="fil3" d="M2400 1364c1 13-7 24-20 26l-691 98c-12 2-24-7-26-20l-39-273c-2-13 7-25 20-26l691-98c12-2 24 7 26 19l39 274z"/><path class="fil4" d="M2120 1264c9 60-33 115-93 124-60 8-115-33-123-93-9-60 33-115 93-124 59-8 115 33 123 93z"/><path class="fil4" d="M1700 1453l660-93-36-250-659 93 35 250zm679-79l-694 99-40-284 694-99 40 284z"/><path class="fil4" d="M1725 1183l-71 10 10 68c1 0 2 0 3-1 37-5 63-39 58-76v-1zm-41 208l10 70 67-10v-3c-5-37-39-63-76-58l-1 1zm615-13l71-10-10-68h-3c-37 5-63 39-58 76v2zm41-208l-10-70-68 9c1 1 1 2 1 3 5 37 39 63 76 58h1z"/><path class="fil3" d="M2427 1816c-3 12-15 20-28 17l-678-165c-12-3-19-16-16-28l65-269c3-12 16-20 28-17l678 166c12 3 20 15 17 27l-66 269z"/><path class="fil4" d="M2205 1620c-14 58-74 94-132 80-59-14-95-74-81-132 15-59 74-95 133-81 58 15 94 74 80 133z"/><path class="fil4" d="M1745 1639l647 158 60-245-648-158-59 245zm660 179l-681-166 68-278 680 166-67 278z"/><path class="fil4" d="M1868 1397l-69-16-16 66c1 1 2 1 3 1 36 9 73-13 81-49l1-2zm-115 178l-17 69 66 16c1-1 1-2 1-3 9-36-13-73-49-82h-1zm576 216l69 17 16-66c-1-1-2-1-3-1-36-9-73 13-82 49v1zm115-177l17-69-66-16c-1 1-1 2-1 3-9 36 13 73 49 82h1z"/><path class="fil3" d="M2109 1978c-8 9-22 11-32 3l-540-442c-10-8-11-23-3-33l175-214c8-10 23-11 33-3l539 442c10 8 12 23 4 33l-176 214z"/><path class="fil4" d="M1994 1704c-38 47-107 54-154 16-47-39-54-108-15-154 38-47 107-54 154-16 46 39 53 108 15 154z"/><path class="fil4" d="M1570 1523l516 422 160-195-516-422-160 195zm518 447l-542-445 182-221 542 444-182 222z"/><path class="fil4" d="M1786 1358l-55-45-43 53c1 1 1 2 2 3 29 23 72 19 95-10l1-1zm-181 111l-45 54 53 44 3-3c23-28 19-71-10-95h-1zm427 444l54 45 44-53-2-2c-29-24-72-20-96 9v1zm180-110l45-55-53-44c0 1-1 2-2 3-24 29-19 71 9 95l1 1z"/><path class="fil3" d="M680 810c-13 2-22 14-20 26l99 691c2 13 14 22 26 20l274-39c13-2 21-14 20-26l-99-691c-2-13-14-22-26-20l-274 39z"/><path class="fil4" d="M854 1051c-60 8-101 64-93 124 9 59 64 101 124 92 60-8 101-64 93-124-9-59-64-101-124-92z"/><path class="fil4" d="M1039 1471l-94-659-250 35 95 660 249-36zm-80-679l100 694-284 40-99-693 283-41z"/><path class="fil4" d="M1042 1408l10 70-67 10c-1-1-1-2-1-4-5-36 20-71 57-76h1zm-188 97l-70 10-10-68h4c37-6 71 20 76 57v1zM695 910l-10-70 68-9v3c6 37-20 71-57 76h-1zm188-97l70-10 10 68h-3c-37 6-72-20-77-57v-1z"/><path class="fil3" d="M164 1318c-1 12 7 24 20 26l691 98c12 1 24-7 26-20l39-274c2-12-7-24-20-26l-691-98c-12-2-24 7-26 20l-39 274z"/><path class="fil4" d="M444 1218c-9 59 33 115 93 123 60 9 115-33 123-93 9-60-33-115-93-123-59-9-115 33-123 93z"/><path class="fil4" d="M899 1157l-659-94-36 250 660 94 35-250zm-674-113l694 98-40 284-694-98 40-284z"/><path class="fil4" d="M839 1136l71 10-10 68h-3c-37-5-63-40-58-77v-1zm41 208l-10 70-68-9c1-1 1-2 1-4 5-37 39-62 76-57h1zm-615-13l-71-10 10-68h3c37 6 63 40 58 77v1zm-41-208l10-70 67 10v3c-5 37-39 63-76 58l-1-1z"/><path class="fil3" d="M66 1790c3 12 16 20 28 17l678-165c12-3 20-16 17-28l-66-269c-3-12-15-20-27-17L18 1494c-13 3-20 15-17 28l65 268z"/><path class="fil4" d="M288 1594c15 58 74 94 133 80 58-14 94-73 80-132s-73-95-132-81c-59 15-95 74-81 133z"/><path class="fil4" d="M689 1368L42 1526l60 245 647-158-60-245zM21 1514l681-166 68 278-681 166-68-278z"/><path class="fil4" d="M626 1372l69-17 16 66c-1 1-2 1-3 1-37 9-73-13-82-49v-1zm115 177l17 69-67 16c0-1-1-2-1-3-9-36 13-73 50-82h1zm-577 217l-69 16-16-66c1-1 2-1 3-1 37-9 73 13 82 49v2zM49 1588l-17-69 67-16c0 1 1 2 1 3 9 36-14 73-50 82h-1z"/><path class="fil5" d="M1999 771c0 61-50 111-112 111-61 0-111-50-111-111s50-111 111-111c62 0 112 50 112 111z"/><path class="fil6" d="M1979 773c0 49-40 89-90 89-49 0-89-40-89-89 0-50 40-90 89-90 50 0 90 40 90 90z"/><path class="fil5" d="M1775 945c0 61-50 111-112 111-61 0-111-50-111-111 0-62 50-112 111-112 62 0 112 50 112 112z"/><path class="fil6" d="M1755 946c0 50-40 90-90 90-49 0-89-40-89-90 0-49 40-89 89-89 50 0 90 40 90 89z"/><path class="fil5" d="M1864 511c0 61-50 111-112 111-61 0-111-50-111-111 0-62 50-111 111-111 62 0 112 49 112 111z"/><path class="fil6" d="M1844 513c0 49-40 89-90 89-49 0-89-40-89-89 0-50 40-90 89-90 50 0 90 40 90 90z"/><path class="fil5" d="M2130 524c0 62-50 112-111 112-62 0-111-50-111-112 0-61 49-111 111-111 61 0 111 50 111 111z"/><path class="fil6" d="M2110 526c0 50-40 90-89 90-50 0-90-40-90-90 0-49 40-90 90-90 49 0 89 41 89 90z"/><path class="fil5" d="M517 648c0 68-55 124-124 124-68 0-123-56-123-124s55-124 123-124c69 0 124 56 124 124z"/><path class="fil7" d="M496 648c0 57-46 102-103 102-56 0-102-45-102-102 0-56 46-102 102-102 57 0 103 46 103 102z"/><path class="fil6" d="M491 646c0 55-45 99-100 99s-100-44-100-99 45-100 100-100 100 45 100 100z"/><path class="fil5" d="M1590 194c7 8 6 21-3 28l-352 291c-8 7-21 6-28-3l-154-186c-7-9-6-22 3-29L1408 5c9-7 21-6 28 2l154 187z"/><path class="fil8" d="M1507 93l-383 317-46-56 384-316zm-84 127l-144 119-6-7 145-119zm19 22l-144 119-6-7 144-119zm18 22l-144 119-6-7 144-119z"/><path class="fil9" d="M1229 489l-70-84 84-70 70 85z"/><path class="fil8" d="M1256 419c-2 1-6-4-6-4s1-9-4-16c3-3-1-12-6-12-2-2-13-23-32-8-18 15 0 30 3 33-1 5 6 10 9 8 7 6 16 7 16 7s4 4 2 6c-4 5-17 31-9 41l34-28 35-29c-8-10-36-2-42 2zm272-260l-36 29-29-36 35-29zm41 49l-36 30-29-36 36-29z"/><path class="fil4" d="M1633 678c0 23-42 38-50 58-9 21 10 61-6 77s-56-3-77 6c-20 8-35 50-58 50-24 0-38-42-59-50-21-9-61 10-76-6-16-16 3-56-6-77-9-20-50-35-50-58s41-38 50-58c9-21-10-61 6-77 15-16 55 3 76-6 21-8 35-50 59-50 23 0 38 42 58 50 21 9 61-10 77 6s-3 56 6 77c8 20 50 35 50 58z"/><path class="fil3" d="M1481 715v9c1 3 1 5 2 6 0 2 1 3 2 4h8c1-1 2-2 2-4 1-1 1-3 2-6v-9c0-8 0-13-2-16-1-3-3-4-6-4s-5 1-6 4-2 8-2 16zm-30 0c0-6 1-12 3-16 2-5 4-9 8-12 3-3 7-5 12-7 4-2 9-2 15-2s11 0 15 2c5 2 9 4 12 7 4 3 6 7 8 12 2 4 3 10 3 16s-1 11-3 16c-2 4-4 8-8 11-3 3-7 6-12 7-4 2-9 3-15 3s-11-1-15-3c-5-1-9-4-12-7-4-3-6-7-8-11-2-5-3-10-3-16zm-65-74c0 4 1 8 1 10 0 3 0 5 1 6 1 2 1 3 3 3 1 1 2 1 3 1 2 0 3 0 4-1 1 0 2-1 3-3 0-1 1-3 1-6v-10c0-7 0-12-1-15s-3-4-7-4c-3 0-5 1-6 4s-2 8-2 15zm94-35h29l-106 144h-28l105-144zm-123 35c0-5 0-11 2-15 2-5 5-9 8-12s7-5 12-7 10-3 15-3c6 0 11 1 16 3s9 4 12 7 6 7 8 12c1 4 2 10 2 15 0 6-1 12-2 16-2 5-5 9-8 12s-7 5-12 7-10 3-16 3c-5 0-10-1-15-3s-9-4-12-7-6-7-8-12c-2-4-2-10-2-16z"/><path class="fil1" d="M902 338s54-69 18-74c-35-5-37 22-55 25-9 2-17-1-26-3-9-3-20-6-33-4-33 6-34 23-50 24-8 1-16 0-24-1-16-3-32-5-48 7-24 18 43 59 43 59s-68 80-63 184c6 103 64 191 221 162 157-28 190-119 148-230-41-110-131-149-131-149z"/><path class="fil2" d="M809 372c-25 4-52 8-81 11-6 0-12-5-12-11-1-6 4-11 10-12 92-7 172-32 172-33 6-2 12 2 14 8 2 5-1 12-7 13-2 1-41 14-96 24z"/><path class="fil8" d="M1108 1207h348v-178h-348v178zm351 70h-354c-37 0-68-30-68-67v-184c0-37 31-67 68-67h354c37 0 68 30 68 67v184c0 37-31 67-68 67zm-690 964c0 13-11 24-24 24h-83c-13 0-23-11-23-24s10-23 23-23h83c13 0 24 10 24 23zm1136 0c0 13-10 24-24 24h-82c-13 0-24-11-24-24s11-23 24-23h82c14 0 24 10 24 23z"/><path class="fil10" d="M2052 2183c0 24-19 43-42 43H534c-23 0-42-19-42-43V1171c0-24 19-43 42-43h1476c23 0 42 19 42 43v1012z"/><path class="fil11" d="M1291 2023c-191 0-345-154-345-345s154-346 345-346 346 155 346 346-155 345-346 345z"/><path class="fil12" d="M1289 1425c134 0 244 106 250 239-2-2-4-2-6-3-9-3-18-4-26-3-2 0-4 1-6 1-8-110-100-197-212-197-118 0-213 96-213 213 0 111 85 203 194 212-3 11-2 26 4 38-132-8-236-117-236-250 0-138 113-250 251-250zm172 319l-11 11c0 1-1 1-2 2l-4 5c-5 5-10 9-15 15l-5 4c-2 3-5 6-8 8-2 3-4 5-6 7l-4 3c0 1-1 1-1 2-3 3-6 5-8 8-3 3-7 6-10 10-1 0-1 0-2 1 0 1-1 1-1 2-1 0-1 1-2 1l-16 17c-2 2-7 6-8 8-3-1-5-2-8-2-8-1-17 0-24 2-4 2-9 4-12 7l-5 4c-1 0-2 1-3 2l-2 2c-10 10-17 27-15 42 0 4 3 13 5 14 0 0 3-2 3-3l2-2 5-5c5-5 11-11 16-15 0-1 1-1 2-2 4-4 7-10 16-11 6-1 11 1 16 5l5 5 2 2c3 3 5 9 4 15-1 9-8 14-12 18l-9 9-7 7c-1 2-10 9-10 11 1 1 5 2 7 3 2 0 5 1 8 1 10 1 21-1 30-6 4-3 8-5 10-8 13-12 21-30 18-47 0-3-1-5-2-8l15-14c2-3 5-5 8-8l34-34 8-8c4-4 12-12 16-17 1 0 1 0 2-1 5-6 11-11 16-16l5-5c3 0 5 1 8 2 12 2 26-2 36-9 1-1 2-1 3-2l5-4c3-3 8-10 10-14s4-9 6-14c1-5 1-11 1-17-1-3-3-12-5-14-1 0-4 4-5 5l-2 2s-1 1-1 2l-11 10c-1 2-3 3-5 5l-4 4c-4 4-7 9-16 11-4 0-8 0-11-2-2-1-3-2-5-3l-3-3c-3-3-5-4-6-8-2-3-3-7-3-11 2-9 7-13 11-17l18-17c1-2 2-3 3-4s7-6 7-7c-9-5-22-6-32-3-9 2-17 7-24 13l-4 4c-11 12-17 30-13 47 1 1 1 2 1 3zm-76 19h-193v16c0 4 1 11-1 14-3 4-6 4-13 4h-15c-9 0-24 3-24-8-1-7 0-24 0-32 0-7 0-8-3-14-2-5-3-7-3-13 0-13 0-33 2-46 2-9 4-19 5-28 0-3 2-12 0-14-3-4-14-7-16-9s-2-2-2-5c0-4-1-11 5-12 4 0 10 1 15 1 2 0 3-1 4 0 2 0 1 1 3 0 3-1 5-8 6-10 0-2 1-4 2-6 4-10 5-9 8-16 1-1 2-3 3-5 2-3 4-6 7-9 4-6 4-5 7-9 5-5 14-9 23-9 6 0 44 0 84-1 39 1 78 1 84 1 8 0 17 4 22 9 4 4 4 3 8 9l6 9c1 2 2 4 3 5 4 7 4 6 8 16l3 6c1 2 3 9 5 10s2 0 3 0c1-1 3 0 4 0 5 0 11-1 16-1 5 1 5 8 5 12 0 3-1 3-3 5s-12 5-15 9c-2 2-1 11 0 14 1 9 2 19 4 28 3 13 2 33 2 46 0 4 0 6-1 8l-56 56v-1c-2-3-2-10-2-14 0-5 1-11 0-16zm-96-129h119c2 0 4-2 5-4 2-5 0-12-2-17s-4-9-6-14c-5-12-6-14-15-24-3-3-7-5-13-7h-176c-6 2-10 4-13 7-10 10-11 12-16 24-2 5-4 9-6 14-1 5-4 12-2 17 1 2 3 4 5 4h120zm-47 58c0-4-3-19-5-22s-6-2-11-2h-53c-6 0-7-2-11-3 0 6 2 19 3 23 2 4 5 4 10 4 7 0 64 1 67 0zm94 0c0-4 2-19 4-22s7-2 11-2h54c6 0 7-2 11-3-1 6-2 19-4 23-1 4-4 4-9 4-7 0-64 1-67 0z"/></g></svg>